<svg width="220" height="220" viewBox="0 0 220 220" fill="none" xmlns="http://www.w3.org/2000/svg">
  <path d="M54 116C54 116 72 94 94 84C116 74 142 82 157 98C171 114 170 132 157 141C144 150 121 150 97 143C73 136 54 116 54 116Z" fill="#fff" stroke="#3A3A3A" stroke-width="3" stroke-linejoin="round"/>
  <ellipse cx="62" cy="117" rx="16" ry="22" fill="#fff" stroke="#3A3A3A" stroke-width="3"/>
  <ellipse cx="158" cy="110" rx="12" ry="17" fill="#fff" stroke="#3A3A3A" stroke-width="3"/>
  <path d="M92 95C100 100 103 109 100 117" stroke="#8E8E8E" stroke-width="2"/>
  <path d="M113 91C122 98 126 110 122 122" stroke="#8E8E8E" stroke-width="2"/>
  <path d="M133 96C141 103 145 113 142 124" stroke="#8E8E8E" stroke-width="2"/>
</svg>
