<svg width="220" height="160" viewBox="0 0 220 160" fill="none" xmlns="http://www.w3.org/2000/svg">
  <rect x="18" y="122" width="104" height="18" rx="9" fill="#89D3F4"/>
  <rect x="46" y="101" width="48" height="24" rx="12" fill="#67C4EF"/>
  <path d="M74 96C85.0457 96 94 87.0457 94 76C94 64.9543 85.0457 56 74 56C62.9543 56 54 64.9543 54 76C54 87.0457 62.9543 96 74 96Z" fill="#2F4E7E"/>
  <path d="M78 76C78 78.2091 76.2091 80 74 80C71.7909 80 70 78.2091 70 76C70 73.7909 71.7909 72 74 72C76.2091 72 78 73.7909 78 76Z" fill="#ECF6FC"/>
  <path d="M77 65L114.48 30.9287C118.241 27.5082 124.006 27.6632 127.578 31.2802L127.756 31.4603C131.552 35.3032 131.472 41.4935 127.577 45.2369L95.5 76.075" stroke="#6D87B2" stroke-width="16" stroke-linecap="round"/>
  <path d="M99 81L116.245 109.468C118.864 113.79 124.422 115.154 128.724 112.501L129.76 111.862C134.02 109.234 135.338 103.672 132.72 99.3667L116 72" stroke="#A9BEDB" stroke-width="16" stroke-linecap="round"/>
  <path d="M129.5 48.5C137.508 48.5 144 42.0081 144 34C144 25.9919 137.508 19.5 129.5 19.5C121.492 19.5 115 25.9919 115 34C115 42.0081 121.492 48.5 129.5 48.5Z" fill="#6D87B2"/>
  <path d="M129.5 40.5C133.09 40.5 136 37.5899 136 34C136 30.4101 133.09 27.5 129.5 27.5C125.91 27.5 123 30.4101 123 34C123 37.5899 125.91 40.5 129.5 40.5Z" fill="#ECF6FC"/>
  <path d="M46 42L71 24" stroke="#89D3F4" stroke-width="10" stroke-linecap="round"/>
  <path d="M52 55L82 33" stroke="#67C4EF" stroke-width="10" stroke-linecap="round"/>
  <path d="M58 68L92 42" stroke="#4CAFE2" stroke-width="10" stroke-linecap="round"/>
</svg>
