<svg
  xmlns="http://www.w3.org/2000/svg"
  viewBox="0 0 64 64"
  fill="none"
>
  <rect width="64" height="64" rx="14" fill="#FFF7F4" />
  <path
    d="M12 14.5C12 13.1193 13.1193 12 14.5 12H29V22.2H23.4V19.1H17.6V44.9H23.4V41.8H29V52H14.5C13.1193 52 12 50.8807 12 49.5V14.5Z"
    fill="#111111"
  />
  <path
    d="M32.6 12H49.5C50.8807 12 52 13.1193 52 14.5V29.8H41.8V24.2H46.4V17.6H32.6V12Z"
    fill="#FB4522"
  />
  <path d="M29 25.8H39.2V36H29V25.8Z" fill="#FB4522" />
  <path
    d="M41.8 38.6H52V49.5C52 50.8807 50.8807 52 49.5 52H32.6V46.4H46.4V38.6H41.8Z"
    fill="#111111"
  />
</svg>
